<?xml version="1.0" encoding="UTF-8" standalone="no" ?>
<!DOCTYPE svg PUBLIC "-//W3C//DTD SVG 1.1//EN" "http://www.w3.org/Graphics/SVG/1.1/DTD/svg11.dtd">
<svg xmlns="http://www.w3.org/2000/svg" xmlns:xlink="http://www.w3.org/1999/xlink" version="1.1" width="200" height="200" viewBox="0 0 200 200" xml:space="preserve">
<desc>Created with Fabric.js 5.3.0</desc>
<defs>
</defs>
<g transform="matrix(0.8592603028 -1.4882825015 0.2459512503 0.1420000206 110.2930409286 16.3852183394)" id="YJ2JPV3t7u-cYwNJeHho4"  >
<path style="stroke: rgb(233,48,185); stroke-width: 0; stroke-dasharray: none; stroke-linecap: butt; stroke-dashoffset: 0; stroke-linejoin: miter; stroke-miterlimit: 4; fill: rgb(255,255,255); fill-rule: nonzero; opacity: 1;"  transform=" translate(0, 0)" d="M -14.08451 -14.08451 L 14.0845 -14.08451 L 14.0845 14.0845 L -14.08451 14.0845 z" stroke-linecap="round" />
</g>
<g transform="matrix(2.9200700063 -0.8927549929 0.0830335641 0.2715905507 137.0239144106 26.3850247811)" id="zFpOlTiL0NRmT2gOrTtrY"  >
<path style="stroke: rgb(62,145,189); stroke-width: 0; stroke-dasharray: none; stroke-linecap: butt; stroke-dashoffset: 0; stroke-linejoin: miter; stroke-miterlimit: 4; fill: rgb(255,255,255); fill-rule: nonzero; opacity: 1;"  transform=" translate(0, 0)" d="M -14.08451 -14.08451 L 14.0845 -14.08451 L 14.0845 14.0845 L -14.08451 14.0845 z" stroke-linecap="round" />
</g>
<g transform="matrix(0.8726769525 -1.2463118503 0.2326391806 0.1628957079 163.7533149361 31.8683221602)" id="doSWBMMgPgzxiogw6mBSh"  >
<path style="stroke: rgb(202,212,115); stroke-width: 0; stroke-dasharray: none; stroke-linecap: butt; stroke-dashoffset: 0; stroke-linejoin: miter; stroke-miterlimit: 4; fill: rgb(255,255,255); fill-rule: nonzero; opacity: 1;"  transform=" translate(0, 0)" d="M -14.08451 -14.08451 L 14.0845 -14.08451 L 14.0845 14.0845 L -14.08451 14.0845 z" stroke-linecap="round" />
</g>
<g transform="matrix(1.8283436731 -0.3553940084 0.0541897547 0.2787821201 179.3211477966 42.7842577897)" id="YUyfx0GQ7w2B677QjJcs8"  >
<path style="stroke: rgb(88,100,174); stroke-width: 0; stroke-dasharray: none; stroke-linecap: butt; stroke-dashoffset: 0; stroke-linejoin: miter; stroke-miterlimit: 4; fill: rgb(255,255,255); fill-rule: nonzero; opacity: 1;"  transform=" translate(0, 0)" d="M -14.08451 -14.08451 L 14.0845 -14.08451 L 14.0845 14.0845 L -14.08451 14.0845 z" stroke-linecap="round" />
</g>
</svg>